<mxfile host="app.diagrams.net" modified="2024-06-07T16:28:18.547Z" agent="Mozilla/5.0 (Macintosh; Intel Mac OS X 10_15_7) AppleWebKit/605.1.15 (KHTML, like Gecko) Version/17.5 Safari/605.1.15" version="24.5.2" etag="n-rcVuQyue-hvDCmd9O-" type="github">
  <diagram name="Page-1" id="Xe_wd4Gcr7nM3SLCPToE">
    <mxGraphModel>
      <root>
        <mxCell id="0" />
        <mxCell id="1" parent="0" />
      </root>
    </mxGraphModel>
  </diagram>
</mxfile>
